HIERARCHY
ROOT Hips
{
	OFFSET 0.00 0.00 0.00
	CHANNELS 6 Xposition Yposition Zposition Xrotation Yrotation Zrotation
	JOINT Spine
	{
		OFFSET 0.00000 1.15266 1.72900
		CHANNELS 3 Xrotation Yrotation Zrotation
		JOINT Spine1
		{
			OFFSET 0.00000 0.40032 2.27031
			CHANNELS 3 Xrotation Yrotation Zrotation
			JOINT Spine2
			{
				OFFSET 0.00000 0.20092 2.29656
				CHANNELS 3 Xrotation Yrotation Zrotation
				JOINT Spine3
				{
					OFFSET 0.00000 0.00000 2.30533
					CHANNELS 3 Xrotation Yrotation Zrotation
					JOINT Neck
					{
						OFFSET 0.00000 -0.86449 6.05149
						CHANNELS 3 Xrotation Yrotation Zrotation
						JOINT Head
						{
							OFFSET 0.00000 -0.55043 3.12167
							CHANNELS 3 Xrotation Yrotation Zrotation
							End Site
							{
								OFFSET 0.00000 0.00000 3.73175
							}
						}
					}
					JOINT RightShoulder
					{
						OFFSET -0.78828 -1.31380 4.25672
						CHANNELS 3 Xrotation Yrotation Zrotation
						JOINT RightArm
						{
							OFFSET -3.91513 0.00000 0.00000
							CHANNELS 3 Xrotation Yrotation Zrotation
							JOINT RightForeArm
							{
								OFFSET -6.91491 0.00000 0.00000
								CHANNELS 3 Xrotation Yrotation Zrotation
								JOINT RightHand
								{
									OFFSET -6.09622 0.00000 0.00000
									CHANNELS 3 Xrotation Yrotation Zrotation
									JOINT RightHandEnd
									{
										OFFSET -1.74995 0.00000 0.00000
										CHANNELS 3 Xrotation Yrotation Zrotation
										End Site
										{
											OFFSET -1.74995 0.00000 0.00000
										}
									}
									JOINT RightHandThumb1
									{
										OFFSET -0.69998 -1.16663 -0.46665
										CHANNELS 3 Yrotation Xrotation Zrotation
										End Site
										{
											OFFSET -1.69032 -0.45292 0.00000
										}
									}
								}
							}
						}
					}
					JOINT LeftShoulder
					{
						OFFSET 0.78828 -1.31380 4.25672
						CHANNELS 3 Xrotation Yrotation Zrotation
						JOINT LeftArm
						{
							OFFSET 3.91513 0.00000 0.00000
							CHANNELS 3 Xrotation Yrotation Zrotation
							JOINT LeftForeArm
							{
								OFFSET 6.91491 0.00000 0.00000
								CHANNELS 3 Xrotation Yrotation Zrotation
								JOINT LeftHand
								{
									OFFSET 6.09622 0.00000 0.00000
									CHANNELS 3 Xrotation Yrotation Zrotation
									JOINT LeftHandEnd
									{
										OFFSET 1.74995 0.00000 0.00000
										CHANNELS 3 Xrotation Yrotation Zrotation
										End Site
										{
											OFFSET 1.74995 0.00000 0.00000
										}
									}
									JOINT LeftHandThumb1
									{
										OFFSET 0.69998 -1.16663 -0.46665
										CHANNELS 3 Yrotation Xrotation Zrotation
										End Site
										{
											OFFSET 1.69032 -0.45292 0.00000
										}
									}
								}
							}
						}
					}
				}
			}
		}
	}
	JOINT RightUpLeg
	{
		OFFSET -2.33857 0.00000 -0.68318
		CHANNELS 3 Xrotation Yrotation Zrotation
		JOINT RightLeg
		{
			OFFSET 0.00000 0.00000 -10.74496
			CHANNELS 3 Xrotation Yrotation Zrotation
			JOINT RightFoot
			{
				OFFSET 0.00000 0.00000 -10.93085
				CHANNELS 3 Xrotation Yrotation Zrotation
				JOINT RightToeBase
				{
					OFFSET 0.00000 -4.08727 -1.48765
					CHANNELS 3 Xrotation Yrotation Zrotation
					End Site
					{
						OFFSET 0.00000 -1.89187 -0.00000
					}
				}
			}
		}
	}
	JOINT LeftUpLeg
	{
		OFFSET 2.33857 0.00000 -0.68318
		CHANNELS 3 Xrotation Yrotation Zrotation
		JOINT LeftLeg
		{
			OFFSET 0.00000 0.00000 -10.74496
			CHANNELS 3 Xrotation Yrotation Zrotation
			JOINT LeftFoot
			{
				OFFSET 0.00000 0.00000 -10.93085
				CHANNELS 3 Xrotation Yrotation Zrotation
				JOINT LeftToeBase
				{
					OFFSET 0.00000 -4.08727 -1.48765
					CHANNELS 3 Xrotation Yrotation Zrotation
					End Site
					{
						OFFSET 0.00000 -1.89187 -0.00000
					}
				}
			}
		}
	}
}
MOTION
Frames: 9
Frame Time:	0.0333333
 0.1081 -113.8641 24.4236 -6.3750 0.7993 174.1813 -0.0953 1.7897 0.3053 -0.3614 0.2761 0.1877 0.7990 -0.1400 4.9767 -1.4096 -0.8139 1.4970 -2.5341 -3.3677 -3.3142 3.3078 -1.2990 -7.1278 -6.4106 -0.5739 -2.4492 -10.4508 -2.0339 10.0589 0.0000 0.0000 12.1538 0.0637 4.7831 -15.3322 0.0000 -0.0000 -0.0000 -0.0000 -0.0000 -0.0000 -9.3109 1.9097 0.2116 -6.0004 0.1782 -15.5610 -0.0000 0.0000 2.3711 6.2266 11.8306 4.9716 0.0000 -0.0000 0.0000 -0.0000 0.0000 0.0000 -15.1304 1.0672 -2.8595 12.2683 0.0000 0.0000 -4.2579 0.8079 4.6097 1.6031 0.0000 0.0000 -6.0430 1.7069 2.9203 1.2763 0.0000 0.0000 -5.2588 0.9797 4.8866 -10.1323 0.0000 -0.0000
 0.1079 -113.8686 24.4224 -6.3199 0.8366 174.0418 -0.0988 1.7864 0.3152 -0.3659 0.2548 0.1921 0.8374 -0.0605 5.0930 -1.3909 -0.8112 1.4935 -2.4917 -3.2868 -3.4655 3.1313 -1.3927 -7.4013 -6.2072 -0.6167 -2.3347 -10.3995 -1.9826 10.0459 0.0000 0.0000 12.1126 -0.1044 4.8419 -15.1945 -0.0000 0.0000 0.0000 -0.0000 -0.0000 0.0000 -9.1497 2.0464 0.1636 -5.9267 0.1111 -15.3938 -0.0000 0.0000 2.3954 6.2524 11.7179 4.9499 -0.0000 0.0000 -0.0000 0.0000 0.0000 0.0000 -15.1482 1.0814 -2.8012 12.3519 0.0000 0.0000 -4.2833 0.8585 4.6873 1.6347 0.0000 0.0000 -6.0401 1.7337 2.9826 1.3849 0.0000 0.0000 -5.3472 0.9041 4.9651 -10.0684 0.0000 -0.0000
 0.1079 -113.8732 24.4215 -6.2277 0.8769 173.8209 -0.1314 1.7244 0.3367 -0.4035 0.1958 0.1984 0.9460 0.1383 5.2991 -1.3283 -0.7790 1.4777 -2.3977 -3.2255 -3.7001 2.8417 -1.4821 -7.8039 -5.8961 -0.7868 -2.2646 -10.3788 -1.8077 10.2038 0.0000 0.0000 11.9409 -0.2890 4.8491 -15.1174 -0.0000 0.0000 0.0000 -0.0000 -0.0000 0.0000 -8.9047 2.2548 0.0294 -5.9347 0.0171 -15.1029 -0.0000 0.0000 2.4298 6.3042 11.6357 4.9176 0.0000 0.0000 0.0000 0.0000 -0.0000 -0.0000 -15.1107 1.0909 -2.7461 12.3784 0.0000 0.0000 -4.2626 0.8808 4.8474 1.6268 0.0000 0.0000 -5.9833 1.7663 3.0944 1.4746 0.0000 0.0000 -5.4348 0.7095 5.0934 -9.7424 0.0000 -0.0000
 0.1087 -113.8780 24.4217 -6.1983 0.8995 173.6527 -0.1730 1.6524 0.3534 -0.4412 0.1469 0.2049 1.0357 0.3317 5.4612 -1.2835 -0.7393 1.4601 -2.3881 -3.2217 -3.9204 2.6532 -1.5105 -8.1725 -5.6820 -0.9430 -2.2244 -10.4151 -1.6737 10.3028 0.0000 0.0000 11.8120 -0.3784 4.8122 -15.1513 0.0000 -0.0000 -0.0000 0.0000 0.0000 -0.0000 -8.7325 2.4736 -0.0639 -6.0416 -0.0278 -14.8610 -0.0000 0.0000 2.4736 6.2846 11.6479 4.9282 -0.0000 -0.0000 -0.0000 -0.0000 0.0000 0.0000 -15.0763 1.0885 -2.7506 12.2973 0.0000 0.0000 -4.1855 0.8665 5.0169 1.5819 0.0000 0.0000 -5.9804 1.7815 3.2145 1.5295 0.0000 0.0000 -5.4654 0.5082 5.1784 -9.3226 0.0000 -0.0000
 0.1126 -113.8820 24.4232 -6.2059 0.8844 173.6270 -0.1447 1.6194 0.3491 -0.4358 0.1161 0.2028 1.0627 0.4618 5.5006 -1.3030 -0.7140 1.4457 -2.5604 -3.2676 -4.0955 2.6712 -1.5104 -8.4456 -5.6464 -0.9554 -2.1580 -10.4357 -1.7398 10.1353 0.0000 0.0000 11.8452 -0.3624 4.8209 -15.2210 0.0000 -0.0000 0.0000 0.0000 -0.0000 -0.0000 -8.7125 2.6046 -0.0595 -6.1169 0.0532 -14.7231 -0.0000 0.0000 2.5316 6.1832 11.6645 5.0114 -0.0000 0.0000 -0.0000 -0.0000 0.0000 -0.0000 -15.0272 1.0639 -2.8288 12.1615 0.0000 0.0000 -4.0980 0.8639 5.1121 1.5446 0.0000 0.0000 -6.0331 1.7547 3.3263 1.6007 0.0000 0.0000 -5.4608 0.4466 5.1188 -9.1174 0.0000 -0.0000
 0.1191 -113.8873 24.4242 -6.2037 0.8718 173.6878 -0.0783 1.6291 0.3364 -0.4107 0.1146 0.2037 1.0969 0.5531 5.4640 -1.3474 -0.6890 1.4309 -2.8110 -3.3321 -4.2654 2.7535 -1.5447 -8.6774 -5.6406 -0.8803 -2.0806 -10.3911 -1.9316 9.8328 0.0000 0.0000 11.8949 -0.3322 4.8781 -15.2454 0.0000 0.0000 -0.0000 0.0000 0.0000 0.0000 -8.7370 2.6204 -0.0728 -6.0662 0.2219 -14.5694 -0.0000 0.0000 2.5795 6.1085 11.5625 5.1285 0.0000 0.0000 -0.0000 -0.0000 0.0000 0.0000 -15.0200 1.0471 -2.8934 12.1447 0.0000 0.0000 -4.0730 0.8946 5.1055 1.5409 0.0000 0.0000 -6.1119 1.7225 3.4608 1.7210 0.0000 0.0000 -5.4639 0.5086 4.9229 -9.1574 0.0000 -0.0000
 0.1270 -113.8938 24.4235 -6.1692 0.8867 173.7455 -0.0330 1.6651 0.3303 -0.3987 0.1193 0.2063 1.1832 0.6688 5.4343 -1.3650 -0.6728 1.4083 -2.9620 -3.3869 -4.4362 2.7403 -1.6216 -8.9088 -5.5296 -0.8501 -2.0683 -10.3024 -2.0641 9.6841 0.0000 0.0000 11.7575 -0.3727 4.8768 -15.2365 0.0000 -0.0000 -0.0000 -0.0000 -0.0000 -0.0000 -8.6663 2.5952 -0.1534 -5.9543 0.3668 -14.3747 -0.0000 0.0000 2.5829 6.1113 11.3590 5.2133 -0.0000 0.0000 -0.0000 0.0000 0.0000 -0.0000 -15.0685 1.0516 -2.8718 12.2890 0.0000 0.0000 -4.1167 0.9260 5.0262 1.5453 0.0000 0.0000 -6.1595 1.7152 3.5784 1.8385 0.0000 0.0000 -5.4793 0.5657 4.7369 -9.2128 0.0000 -0.0000
 0.1354 -113.8993 24.4220 -6.1299 0.9141 173.7782 0.0097 1.7316 0.3281 -0.3870 0.1454 0.2107 1.2507 0.7500 5.4053 -1.3832 -0.6862 1.3833 -3.0033 -3.3937 -4.5680 2.6890 -1.7032 -9.1335 -5.3831 -0.8729 -2.1530 -10.2161 -2.1009 9.7342 0.0000 0.0000 11.5122 -0.4515 4.7769 -15.2629 -0.0000 0.0000 -0.0000 -0.0000 0.0000 0.0000 -8.5323 2.6400 -0.1482 -5.9049 0.4273 -14.2983 -0.0000 0.0000 2.5516 6.1151 11.1850 5.2588 0.0000 0.0000 0.0000 -0.0000 0.0000 -0.0000 -15.1266 1.0617 -2.8062 12.4568 0.0000 0.0000 -4.1744 0.9404 4.9402 1.5292 0.0000 0.0000 -6.1623 1.7242 3.6221 1.8893 0.0000 0.0000 -5.4836 0.5683 4.6650 -9.1666 0.0000 -0.0000
 0.1446 -113.9027 24.4214 -6.1217 0.9239 173.7954 0.0877 1.8197 0.3242 -0.3425 0.1909 0.2120 1.2284 0.7530 5.3502 -1.4490 -0.7131 1.3659 -3.0773 -3.3501 -4.6595 2.7479 -1.7501 -9.3423 -5.3531 -0.9081 -2.3161 -10.1288 -2.1131 9.8424 0.0000 0.0000 11.3886 -0.4703 4.6843 -15.3389 -0.0000 0.0000 0.0000 0.0000 -0.0000 -0.0000 -8.5045 2.7765 0.0646 -5.9261 0.4239 -14.4273 -0.0000 0.0000 2.5444 6.0657 11.0956 5.3035 -0.0000 0.0000 -0.0000 -0.0000 -0.0000 0.0000 -15.1490 1.0508 -2.7957 12.5043 0.0000 0.0000 -4.1904 0.9591 4.9201 1.5015 0.0000 0.0000 -6.1437 1.7153 3.6007 1.8537 0.0000 0.0000 -5.4617 0.5734 4.6850 -9.1236 0.0000 -0.0000
